<?xml version="1.0" standalone="no"?>
<!DOCTYPE svg PUBLIC "-//W3C//DTD SVG 20010904//EN"
 "http://www.w3.org/TR/2001/REC-SVG-20010904/DTD/svg10.dtd">
<svg version="1.0" xmlns="http://www.w3.org/2000/svg"
 width="500.000000pt" height="500.000000pt" viewBox="0 0 500.000000 500.000000"
 preserveAspectRatio="xMidYMid meet">

<g transform="translate(0.000000,500.000000) scale(0.100000,-0.100000)"
fill="#000000" stroke="none">
<path d="M3097 3294 c-86 -20 -160 -59 -221 -115 -100 -91 -143 -202 -133
-339 6 -79 30 -161 52 -180 8 -7 68 -10 171 -8 l159 3 -37 18 c-21 11 -55 38
-77 62 -114 124 -56 325 110 380 49 17 174 21 225 9 91 -22 183 -101 206 -176
l11 -38 114 0 114 0 -7 38 c-10 62 -60 159 -109 211 -54 58 -157 115 -246 136
-80 18 -254 18 -332 -1z"/>
<path d="M1240 2971 l0 -321 105 0 105 0 0 236 0 236 228 -4 c216 -4 231 -5
305 -31 179 -62 287 -174 343 -354 l26 -83 104 0 c77 0 104 3 104 13 0 7 -9
46 -21 87 -54 196 -185 358 -359 444 -171 84 -205 89 -597 94 l-343 4 0 -321z"/>
<path d="M1430 2500 l0 -90 54 0 c74 0 116 33 116 91 0 62 -33 89 -110 89
l-60 0 0 -90z m130 55 c26 -24 26 -79 0 -105 -14 -14 -33 -20 -65 -20 l-45 0
0 76 0 77 45 -6 c25 -2 55 -13 65 -22z"/>
<path d="M1660 2500 c0 -53 4 -90 10 -90 6 0 10 37 10 90 0 53 -4 90 -10 90
-6 0 -10 -37 -10 -90z"/>
<path d="M1765 2564 c-70 -75 25 -192 116 -144 13 8 19 21 19 45 0 19 -4 35
-10 35 -5 0 -10 -16 -10 -35 0 -34 -1 -35 -40 -35 -48 0 -80 27 -80 68 0 57
62 98 110 72 12 -6 25 -9 28 -5 12 12 -23 25 -66 25 -34 0 -48 -6 -67 -26z"/>
<path d="M1970 2500 c0 -53 4 -90 10 -90 6 0 10 37 10 90 0 53 -4 90 -10 90
-6 0 -10 -37 -10 -90z"/>
<path d="M2068 2583 l32 -4 0 -85 c0 -49 4 -84 10 -84 6 0 10 35 10 84 l0 85
33 4 c17 2 -2 4 -43 4 -41 0 -60 -2 -42 -4z"/>
<path d="M2243 2500 c-27 -60 -37 -90 -28 -90 7 0 16 11 19 25 6 23 11 25 60
25 47 0 54 -3 64 -25 6 -14 16 -25 22 -25 5 0 -7 35 -26 78 -20 42 -38 83 -41
90 -12 28 -30 7 -70 -78z m60 -18 c-19 -2 -37 -2 -39 1 -2 2 4 23 13 46 l17
43 22 -44 22 -43 -35 -3z"/>
<path d="M2430 2500 l0 -90 66 0 c41 0 63 4 59 10 -3 6 -28 10 -56 10 l-49 0
0 80 c0 47 -4 80 -10 80 -6 0 -10 -37 -10 -90z"/>
<path d="M2686 2568 c-21 -30 -3 -57 49 -75 49 -17 57 -25 49 -48 -6 -15 -15
-17 -63 -12 -50 5 -54 4 -37 -9 11 -8 37 -14 58 -14 29 0 41 6 53 24 23 35 6
61 -49 75 -49 12 -63 32 -39 56 12 12 26 15 56 10 28 -5 38 -4 33 4 -4 6 -27
11 -51 11 -34 0 -47 -5 -59 -22z"/>
<path d="M2860 2500 c0 -53 4 -90 10 -90 6 0 10 11 10 23 0 13 9 32 21 42 20
19 21 18 58 -25 22 -25 42 -42 45 -39 4 4 -9 25 -29 49 -19 23 -35 45 -35 48
1 4 14 22 30 41 48 56 24 50 -35 -9 l-55 -54 0 52 c0 29 -4 52 -10 52 -6 0
-10 -37 -10 -90z"/>
<path d="M3060 2500 c0 -53 4 -90 10 -90 6 0 10 37 10 90 0 53 -4 90 -10 90
-6 0 -10 -37 -10 -90z"/>
<path d="M3160 2500 l0 -90 60 0 c33 0 60 4 60 10 0 6 -22 10 -50 10 l-50 0 0
80 c0 47 -4 80 -10 80 -6 0 -10 -37 -10 -90z"/>
<path d="M3330 2500 l0 -90 60 0 c33 0 60 4 60 10 0 6 -22 10 -50 10 l-50 0 0
80 c0 47 -4 80 -10 80 -6 0 -10 -37 -10 -90z"/>
<path d="M3496 2568 c-21 -30 -3 -57 49 -75 49 -17 57 -25 49 -48 -6 -15 -15
-17 -63 -12 -50 5 -54 4 -37 -9 11 -8 37 -14 58 -14 29 0 41 6 53 24 23 35 6
61 -49 75 -49 12 -63 32 -39 56 12 12 26 15 56 10 28 -5 38 -4 33 4 -4 6 -27
11 -51 11 -34 0 -47 -5 -59 -22z"/>
<path d="M1240 2029 l0 -321 338 5 c388 5 433 12 602 94 79 38 109 60 176 127
44 44 95 107 113 138 35 63 75 172 86 236 l7 42 -106 0 -105 0 -11 -42 c-19
-75 -22 -82 -53 -143 -40 -80 -135 -173 -217 -213 -113 -55 -164 -64 -402 -69
l-218 -5 0 236 0 236 -105 0 -105 0 0 -321z"/>
<path d="M3525 2297 c44 -45 55 -62 65 -110 35 -169 -85 -303 -280 -315 -182
-11 -304 62 -346 205 l-15 53 -110 0 -110 0 7 -47 c25 -178 169 -321 370 -369
84 -20 248 -23 324 -5 134 32 267 127 323 230 42 76 60 177 48 265 -6 39 -17
88 -26 109 l-15 37 -144 0 -145 0 54 -53z"/>
</g>
</svg>
